<?xml version="1.0" standalone="no"?>
<!DOCTYPE svg PUBLIC "-//W3C//DTD SVG 20010904//EN"
 "http://www.w3.org/TR/2001/REC-SVG-20010904/DTD/svg10.dtd">
 <svg
    height="50"
    preserveAspectRatio="xMidYMid meet"
    version="1.0"
    viewBox="0 0 350 75"
    width="150"
    xmlns="http://www.w3.org/2000/svg"
 >
    <path
        fill="#3949AB"
        d="M55.714 48.193c.002.104-.002.209-.006.31-.003.062 0 .124-.004.187-.003.04-.008.08-.01.12l-.008.072c-1.099 14.465-13.27 25.769-27.8 25.769C12.51 74.65 0 62.14 0 46.765a5.855 5.855 0 0 1 11.71 0c0 8.919 7.256 16.175 16.175 16.175 7.622 0 14.109-5.366 15.756-12.595L23.744 30.45a5.855 5.855 0 1 1 8.28-8.28l21.978 21.977c.045.044.082.092.124.137.072.077.144.153.211.234.063.074.121.15.18.227a5.753 5.753 0 0 1 .464.707 6.075 6.075 0 0 1 .532 1.318 5.617 5.617 0 0 1 .186 1.134c.006.096.012.192.013.288zM.057 26.459c-.002-.104.003-.209.007-.311.003-.063 0-.124.004-.187.003-.04.008-.08.01-.12l.007-.073C1.185 11.304 13.356 0 27.885 0c15.376 0 27.887 12.51 27.887 27.886a5.855 5.855 0 0 1-11.71 0c0-8.92-7.256-16.175-16.176-16.175-7.621 0-14.108 5.366-15.755 12.595l19.896 19.896a5.855 5.855 0 1 1-8.28 8.28L1.77 30.505c-.045-.044-.082-.092-.125-.137-.072-.077-.143-.153-.21-.234-.064-.075-.121-.15-.18-.227a6.08 6.08 0 0 1-.165-.224 5.753 5.753 0 0 1-.3-.483 6.075 6.075 0 0 1-.603-1.613 6.45 6.45 0 0 1-.129-1.127zm88.251-6.551c15.094 0 27.374 12.28 27.374 27.374V68.8a5.855 5.855 0 0 1-11.71 0V47.282c0-8.636-7.026-15.662-15.662-15.662s-15.663 7.026-15.663 15.662V68.8a5.855 5.855 0 0 1-11.71 0V5.856a5.855 5.855 0 0 1 11.71 0v18.996a27.213 27.213 0 0 1 15.663-4.944zm38.348-.147a5.855 5.855 0 0 1 5.855 5.855v43.182a5.855 5.855 0 0 1-11.71 0V25.616a5.855 5.855 0 0 1 5.855-5.855zm-5.408-11.667a5.752 5.752 0 0 1-.33-1.098c-.08-.373-.117-.761-.117-1.142s.037-.768.117-1.142a5.75 5.75 0 0 1 .871-2.107c.212-.322.454-.623.725-.893s.57-.513.893-.725a5.79 5.79 0 0 1 2.108-.87c1.902-.389 3.923.24 5.284 1.595a6.128 6.128 0 0 1 1.266 1.903c.146.351.256.724.33 1.098.08.373.116.76.116 1.141s-.036.769-.117 1.142a5.75 5.75 0 0 1-.87 2.108 6.127 6.127 0 0 1-.725.893c-.27.27-.571.512-.893.724a5.768 5.768 0 0 1-2.108.87c-.373.082-.761.118-1.142.118s-.768-.036-1.141-.117a5.75 5.75 0 0 1-2.108-.87c-.322-.213-.622-.454-.893-.725s-.512-.571-.725-.893a5.823 5.823 0 0 1-.541-1.01zM165.17 19.76c15.094 0 27.371 12.28 27.371 27.374s-12.28 27.374-27.374 27.374a27.213 27.213 0 0 1-15.662-4.944v18.997a5.855 5.855 0 0 1-11.71 0V25.618a5.852 5.852 0 0 1 11.64-.861 27.214 27.214 0 0 1 15.733-4.994zm0 43.035c8.636 0 15.662-7.026 15.662-15.662S173.806 31.47 165.17 31.47s-15.663 7.027-15.663 15.663 7.027 15.662 15.663 15.662zm59.939-43.035c15.134 0 27.446 12.312 27.446 27.446a5.855 5.855 0 0 1-5.855 5.855h-36.197c2.328 5.786 7.998 9.881 14.607 9.881a15.63 15.63 0 0 0 11.126-4.609 5.856 5.856 0 0 1 8.281 8.28c-5.185 5.185-12.077 8.04-19.408 8.04-15.134 0-27.446-12.312-27.446-27.447s12.312-27.446 27.446-27.446zm-14.607 21.591h29.214c-2.327-5.785-7.997-9.88-14.607-9.88s-12.28 4.095-14.606 9.88zm74.687-21.59a5.855 5.855 0 0 1 0 11.71c-8.676 0-15.736 7.058-15.736 15.735v21.591a5.855 5.855 0 0 1-11.71 0V25.616a5.852 5.852 0 0 1 11.645-.83 27.283 27.283 0 0 1 15.801-5.025zm48.16 21.59c9.18 0 16.651 7.47 16.651 16.651s-7.47 16.651-16.651 16.651h-21.591a5.855 5.855 0 0 1 0-11.71h21.591c2.724 0 4.94-2.216 4.94-4.94s-2.216-4.94-4.94-4.94h-21.591c-9.18 0-16.651-7.47-16.651-16.651s7.47-16.651 16.651-16.651h21.591a5.855 5.855 0 0 1 0 11.71h-21.591c-2.724 0-4.94 2.216-4.94 4.94s2.216 4.94 4.94 4.94h21.591z"
    />
</svg>