<?xml version="1.0" encoding="UTF-8"?>
<svg id="Capa_1" xmlns="http://www.w3.org/2000/svg" version="1.1" viewBox="0 0 150 50">
  <!-- Generator: Adobe Illustrator 29.3.0, SVG Export Plug-In . SVG Version: 2.1.0 Build 91)  -->
  <defs>
    <style>
      .st0 {
        fill: #fff;
      }
    </style>
  </defs>
  <g>
    <path class="st0" d="M84.82,29.5c-2.39,2.43-6.38,2.66-9.02.5-.65-.53-2.05-2.29-1.94-3.14.05-.35.87-.63,1.17-.73.34-.12,1.79-.55,2.05-.53.06,0,.1.02.13.07.6,1.96,2.34,2.97,4.3,2.13,1.35-.57,2.16-2.32,1.22-3.59-1.1-1.48-4.84-1.59-6.55-2.66-1.94-1.21-2.63-3.76-2.09-5.91,1.09-4.32,6.67-5.98,10.22-3.44,1.13.81,1.64,1.69,2.08,3,.07.21.32.69.1.84l-3.11.62c-.41-.03-.38-.48-.53-.77-.85-1.7-4.17-1.94-4.96.02-1.25,3.08,2.89,3.33,4.88,4.06,4.37,1.6,5.27,6.25,2.04,9.53h0Z"/>
    <path class="st0" d="M66,18.76l-.2.44c-.49,1.75-1.3,3.51-1.8,5.25-.08.29-.2.57-.17.88l2.92-.17,1.22,3.08-5.42.64c-.38.98-.63,2.12-1.05,3.08-.37.84-.87,1.18-1.77,1.35-.53.1-.96.12-1.43-.18-.93-.61-.14-1.66.12-2.42.86-2.5,1.71-5.02,2.58-7.52,1.01-2.93,1.96-6.23,3.13-9.06.56-1.35,2.17-2.2,3.34-1,.56.58,1.25,2.85,1.55,3.73,1.57,4.52,2.92,9.13,4.51,13.65.21.58.78,1.19-.07,1.56-.52.23-1.81.39-2.33.16-1.47-.65-1.73-3.03-2.16-4.41-.95-3.03-1.95-6.06-2.96-9.06h0ZM73.66,31.63l-1.42.41c.44-.03,1.13-.04,1.42-.41Z"/>
    <path class="st0" d="M91.96,18.21c.06.05.51-.39.58-.47,1.8-1.94,3.56-4.34,5.25-6.4.33-.4.83-1.03,1.32-1.18s1.91-.28,2.42-.19c.93.17.96,1.31.48,1.94-1.99,2.29-4.2,4.41-6.16,6.71-1.06,1.24-1.94,2.69-2.92,3.99-.31.42-.73.65-.78,1.19-.15,1.61.16,3.48,0,5.08-.1.99-1.04,1.6-1.99,1.57-.78-.03-1.45-.75-1.53-1.51-.2-1.9.08-4.22.06-6.16-.03-3.31-.26-6.93-.07-10.23.01-.23.05-.65.09-.86.12-.64,1.04-1.15,1.64-1.2.89-.08,1.72.38,1.8,1.32.12,1.45.09,3.82,0,5.29-.02.35-.07.8-.21,1.11h.02ZM91.28,29.87c-.47.22-.92.19-1.42.24.37.23,1.13.07,1.42-.24Z"/>
    <path class="st0" d="M49.48,21.39c-.05.09-.13.2-.17.29-.05.08-.03.09,0,.14.22.16.02.7-.03.97-.34,1.55-.56,3.14-.49,4.71.15,4.91,4,9.11,8.78,9.96,7.44,1.34,13.55-3.65,20.68-4.51,1.66-.25,3.36-.44,5.01-.66,1.97-.25,3.9-.4,5.88-.29,1.14.07,1.21.2,0,.3-4.18.38-8.37,1.09-12.3,2.57-.63.22-1.26.45-1.9.65-.84.27-1.7.43-2.48.84-1.2.66-2.2,1.72-3.42,2.33-6.03,3.44-13.08,3.7-18.32-1.3-3.36-3.13-4.69-7.22-3.45-11.8.38-1.58,1-3.09,2.16-4.2.08-.07.09-.07.06,0h0Z"/>
    <path class="st0" d="M55.16,17.34c-.02.37,0,.74,0,1.11-.07,4.76-.1,9.58-.07,14.36-.82,2.27-3.07.53-3.45-1.03-.02-3.29,0-6.61,0-9.88v-4.31c-.76.06-1.52.13-2.27.2-1.01.1-2.79.71-2.95-.85-.07-.71-.08-1.98.66-2.32.82-.38,2.87-.33,3.85-.42,2.62-.27,5.39-.72,8-.88.22-.01.6-.03.81,0,.37.06.91.62.97,1,.05.31.06,1.71-.06,1.94-.24.47-.98.58-1.46.64-.51.07-3.89.27-4.02.42v.02Z"/>
    <path class="st0" d="M102.64,28.05"/>
    <path class="st0" d="M101.92,29c-.63.11-1.29.17-1.9-.03-.97-.31-1.61-1.21-2.19-2.06-1.02-1.51-2.05-3.01-3.07-4.52-.1-.15-.21-.31-.19-.5.01-.15.1-.28.19-.4.55-.74,1.16-1.43,1.81-2.07.06-.06.13-.12.21-.11.05,0,.1.04.14.07.56.44.99,1.02,1.4,1.6.71,1,1.39,2.02,2.04,3.06.33.52.64,1.05.95,1.59.14.25.3.49.44.75.17.32.28.67.45.99.12.22.25.43.36.64.1.18.21.35.13.56-.11.3-.51.38-.78.43h.01Z"/>
    <path class="st0" d="M101.92,28.62"/>
    <path class="st0" d="M100.99,8.37c-.18.65-1.84.23-2.4.04-5.01-1.81-9.32.66-14.15,1.5-.69.12-1.47.17-2.14.08-.6-.08-.9-.24-.31-.57.49-.27,1.24-.59,1.81-.84,4.02-1.7,8.21-3.8,12.72-2.7,1.39.33,2.67.92,3.83,1.75.26.18.67.54.64.73h0Z"/>
    <path class="st0" d="M91.62,36.64c-.18-.02-.23.16-.31.27-.31.49-.74,2.13-1.01,2.37-.31.27-.52-.05-.65-.31-.25-.5-.56-1.41-.75-1.96-.09-.27-.61-1.87-.53-1.99l.93-.13.89,2.56c.04-.23.08-.47.16-.69.09-.28.79-1.97.93-2.05.36-.2.54.15.66.42.14.32.47,1.79.62,1.88.06.04.17.05.23.04.13-.03.56-2.18.93-2.47.16-.13.4-.15.59-.06.3.14.11.75.03,1.02-.22.78-.75,2.02-1.07,2.79-.19.45-.45,1.32-.88.55-.27-.48-.54-1.36-.73-1.91-.04-.11-.05-.21-.05-.33h0Z"/>
    <path class="st0" d="M85.97,35.99c.37.38.69,1.03.71,1.57.04,1.06-1.25,2.35-2.28,2.4-.53.03-1.51-.53-1.78-.99-.47-.79-.38-2.4.4-2.97.96-.7,2.06-.93,2.95,0ZM84.21,36.52c-.33.08-.89.54-.93.9-.18,1.46,1.52,2,2.27.85.58-.88-.37-1.97-1.34-1.74h0Z"/>
    <path class="st0" d="M75.42,36.44c-.09.27.2.92-.07,1.05-.06.03-.7.09-.85.1-.22,0-1.07-.06-1.16.06l-.03.68,1.62-.13c.05.04.21,1.03-.09,1.01l-1.53.07c-.1.69.4,2.18-.8,1.75l-.19-4.19c.38-.29.87-.15,1.29-.2.6-.07,1.19-.22,1.8-.2h0Z"/>
    <path class="st0" d="M78.54,39.38c.05.07.06.07.14.07.56,0,1.13-.2,1.7-.08l.07.88-2.82.25c-.04-.24-.09-.47-.1-.71-.05-.87-.07-2.27,0-3.12.01-.14.04-.52.18-.56l.74.06c.01.07.1.19.1.24v2.98h0Z"/>
  </g>
  <path d="M614.59-96.08"/>
  <path d="M609.31-91.84"/>
</svg>